<svg width="1280" height="800" viewBox="0 0 1280 800" fill="none" xmlns="http://www.w3.org/2000/svg">
  <rect width="1280" height="800" fill="#FCF3EA"/>
  <rect x="100" y="90" width="1080" height="620" rx="30" fill="#FFFFFF"/>
  <rect x="150" y="140" width="980" height="126" rx="22" fill="#F4E2D4"/>
  <rect x="188" y="186" width="280" height="24" rx="12" fill="#CC6B2C"/>
  <rect x="188" y="224" width="540" height="16" rx="8" fill="#D8A37A"/>
  <rect x="150" y="290" width="300" height="370" rx="22" fill="#F4E2D4"/>
  <rect x="480" y="290" width="300" height="370" rx="22" fill="#F4E2D4"/>
  <rect x="810" y="290" width="320" height="370" rx="22" fill="#F4E2D4"/>
  <rect x="196" y="344" width="208" height="208" rx="16" fill="#E7C8B1"/>
  <rect x="526" y="344" width="208" height="208" rx="16" fill="#E7C8B1"/>
  <rect x="856" y="344" width="228" height="100" rx="16" fill="#E7C8B1"/>
  <rect x="856" y="460" width="228" height="92" rx="16" fill="#E7C8B1"/>
  <circle cx="630" cy="610" r="32" fill="#CC6B2C" fill-opacity="0.42"/>
</svg>
