<svg width="1280" height="800" viewBox="0 0 1280 800" fill="none" xmlns="http://www.w3.org/2000/svg">
  <rect width="1280" height="800" fill="#FCF4EC"/>
  <rect x="120" y="86" width="1040" height="628" rx="30" fill="#FFFFFF"/>
  <rect x="170" y="136" width="940" height="66" rx="14" fill="#F7E8DB"/>
  <rect x="200" y="156" width="170" height="26" rx="13" fill="#CC6B2C"/>
  <rect x="170" y="236" width="426" height="428" rx="22" fill="#F5E3D5"/>
  <rect x="632" y="236" width="478" height="186" rx="22" fill="#F5E3D5"/>
  <rect x="664" y="274" width="248" height="24" rx="12" fill="#CC6B2C" fill-opacity="0.85"/>
  <rect x="664" y="312" width="390" height="18" rx="9" fill="#D59C70"/>
  <rect x="664" y="346" width="330" height="18" rx="9" fill="#D59C70"/>
  <rect x="632" y="444" width="226" height="220" rx="22" fill="#F5E3D5"/>
  <rect x="884" y="444" width="226" height="220" rx="22" fill="#F5E3D5"/>
  <circle cx="383" cy="450" r="96" fill="#C77438" fill-opacity="0.25"/>
  <circle cx="383" cy="450" r="58" fill="#CC6B2C" fill-opacity="0.45"/>
</svg>
