<svg width="1200" height="675" viewBox="0 0 1200 675" fill="none" xmlns="http://www.w3.org/2000/svg">
  <rect width="1200" height="675" fill="#FCF1E8"/>
  <rect x="116" y="122" width="968" height="431" rx="28" fill="#FFFFFF"/>
  <rect x="168" y="178" width="262" height="318" rx="18" fill="#F6E6D9"/>
  <rect x="202" y="214" width="194" height="18" rx="9" fill="#CC6B2C"/>
  <rect x="202" y="248" width="132" height="132" rx="16" fill="#EBC7AB"/>
  <rect x="202" y="402" width="194" height="56" rx="12" fill="#E8D1BF"/>
  <rect x="466" y="178" width="566" height="138" rx="20" fill="#F4E3D6"/>
  <rect x="498" y="222" width="220" height="20" rx="10" fill="#CC6B2C" fill-opacity="0.86"/>
  <rect x="498" y="254" width="420" height="16" rx="8" fill="#D9A47A"/>
  <rect x="466" y="338" width="272" height="158" rx="20" fill="#F4E3D6"/>
  <rect x="760" y="338" width="272" height="158" rx="20" fill="#F4E3D6"/>
  <circle cx="604" cy="416" r="38" fill="#CC6B2C" fill-opacity="0.35"/>
  <circle cx="898" cy="416" r="38" fill="#CC6B2C" fill-opacity="0.35"/>
</svg>
